<svg xmlns="http://www.w3.org/2000/svg" data-name="Layer 1" viewBox="0 0 168 168"><path fill="#2d4356" d="M32.52717 62.30124a3 3 0 1 0-3-3A3.00344 3.00344 0 0 0 32.52717 62.30124zm0-4.5a1.5 1.5 0 1 1-1.5 1.5A1.50148 1.50148 0 0 1 32.52717 57.80124zM158.30471 67.23807a2 2 0 1 0 2 2A2.00229 2.00229 0 0 0 158.30471 67.23807zm0 3a1 1 0 1 1 1-1A1.001 1.001 0 0 1 158.30471 70.23807zM68.16667 46.11577a2 2 0 1 0 2 2A2.00229 2.00229 0 0 0 68.16667 46.11577zm0 3a1 1 0 1 1 1-1A1.001 1.001 0 0 1 68.16667 49.11577zM158.30471 8.23807a2 2 0 1 0 2 2A2.00229 2.00229 0 0 0 158.30471 8.23807zm0 3a1 1 0 1 1 1-1A1.001 1.001 0 0 1 158.30471 11.23807zM19.30471 14.23807a2 2 0 1 0-2 2A2.00229 2.00229 0 0 0 19.30471 14.23807zm-3 0a1 1 0 1 1 1 1A1.001 1.001 0 0 1 16.30471 14.23807zM8 46.794a2 2 0 1 0-2 2A2.00229 2.00229 0 0 0 8 46.794zm-3 0a1 1 0 1 1 1 1A1.001 1.001 0 0 1 5 46.794z"/><polygon fill="#0bceb2" points="75.497 7.249 76.984 5.294 76.045 4.762 75.091 6.952 75.059 6.952 74.09 4.777 73.134 5.325 74.605 7.234 74.605 7.265 72.305 6.968 72.305 8.032 74.621 7.735 74.621 7.766 73.134 9.674 74.026 10.238 75.044 8.032 75.074 8.032 76.013 10.222 76.999 9.659 75.497 7.781 75.497 7.75 77.859 8.032 77.859 6.968 75.497 7.281 75.497 7.249"/><polygon fill="#0bceb2" points="50.57 29.968 49.714 31.067 50.227 31.392 50.814 30.121 50.831 30.121 51.372 31.383 51.94 31.058 51.075 29.977 51.075 29.959 52.435 30.121 52.435 29.508 51.075 29.689 51.075 29.671 51.931 28.544 51.39 28.238 50.841 29.499 50.822 29.499 50.264 28.247 49.714 28.562 50.561 29.662 50.561 29.68 49.236 29.508 49.236 30.121 50.57 29.95 50.57 29.968"/><polygon fill="#0bceb2" points="155.305 45.951 155.305 44.908 152.988 45.215 152.988 45.184 154.446 43.266 153.525 42.744 152.589 44.892 152.558 44.892 151.607 42.759 150.67 43.297 152.113 45.169 152.113 45.2 149.856 44.908 149.856 45.951 152.128 45.66 152.128 45.691 150.67 47.563 151.545 48.116 152.543 45.951 152.573 45.951 153.494 48.1 154.461 47.548 152.988 45.706 152.988 45.675 155.305 45.951"/><polygon fill="#0bceb2" points="101.503 15.507 102.761 13.853 101.967 13.402 101.159 15.255 101.132 15.255 100.312 13.415 99.504 13.879 100.749 15.494 100.749 15.521 98.802 15.269 98.802 16.169 100.762 15.918 100.762 15.944 99.504 17.559 100.258 18.036 101.119 16.169 101.145 16.169 101.94 18.022 102.774 17.546 101.503 15.957 101.503 15.931 103.502 16.169 103.502 15.269 101.503 15.534 101.503 15.507"/><path fill="#0bceb2" d="M118.15387 153.23807h-8.30774a2.00641 2.00641 0 0 0 0 4h8.30774a2.00641 2.00641 0 0 0 0-4zM58.15387 153.23807H49.84613a2.00641 2.00641 0 0 0 0 4h8.30774a2.00641 2.00641 0 0 0 0-4zM104 153.23807H64a2 2 0 0 0 0 4H79.94v2H72a2 2 0 0 0 0 4H97a2 2 0 1 0 0-4H88.06v-2H104a2 2 0 1 0 0-4z"/><polygon fill="#0bceb2" points="111.117 59.558 112.309 57.902 114.301 57.877 113.149 56.31 113.837 54.406 111.933 55.093 110.366 53.941 110.341 55.934 108.685 57.126 110.573 57.669 111.117 59.558"/><path fill="#2d4356" d="M21.93677,119.2999a1.99269,1.99269,0,0,0,1.41406-.58594l31.125-31.125a1.99979,1.99979,0,0,0-2.82812-2.82812l-31.125,31.125a2,2,0,0,0,1.41406,3.41406Z"/><path fill="#0bceb2" d="M21.93677 129.2999a1.99269 1.99269 0 0 0 1.41406-.58594l31.125-31.125a1.99979 1.99979 0 0 0-2.82812-2.82812l-31.125 31.125a2 2 0 0 0 1.41406 3.41406zM62.93677 71.2999a1.99269 1.99269 0 0 0 1.41406-.58594l31.125-31.125a1.99979 1.99979 0 0 0-2.82812-2.82812l-31.125 31.125a2 2 0 0 0 1.41406 3.41406z"/><path fill="#2d4356" d="M62.93677,81.2999a1.99269,1.99269,0,0,0,1.41406-.58594l31.125-31.125a1.99979,1.99979,0,0,0-2.82812-2.82812l-31.125,31.125a2,2,0,0,0,1.41406,3.41406Z"/><path fill="#0bceb2" d="M130.47583,62.76083a1.99927,1.99927,0,0,0-2.82812,0l-31.125,31.125A1.99979,1.99979,0,1,0,99.35083,96.714l31.125-31.125A1.99927,1.99927,0,0,0,130.47583,62.76083Z"/><path fill="#2d4356" d="M127.64771,72.76083l-31.125,31.125a1.99979,1.99979,0,1,0,2.82813,2.82813l31.125-31.125a1.99979,1.99979,0,0,0-2.82812-2.82812Z"/><circle cx="92.812" cy="83.425" r="2" fill="#0bceb2"/><path fill="#2d4356" d="M46.98657,110.24228a7.7916,7.7916,0,0,0-.103,10.87012,7.70147,7.70147,0,0,0,5.5083,2.37109H52.468a7.69412,7.69412,0,0,0,5.47656-2.2666L90.3299,88.881a6.029,6.029,0,0,1-2.87927-2.77747l-24.71613,24.678-5.30927-5.30994L95.97931,66.977l5.30914,5.31012-5.78967,5.7807a6.02944,6.02944,0,0,1,2.773,2.88342l8.73175-8.71844,9.56458-7.90259a2.019,2.019,0,0,0,.26807-.26855l7.762-9.39655,3.21112-3.20624,8.817-2.66382a2.00107,2.00107,0,0,0,1.2749-1.16309l10.01563-24.70508a2.00008,2.00008,0,0,0-2.605-2.60449l-9.79553,3.972a5.96659,5.96659,0,0,1,1.52985,3.69592l5.38727-2.18451-7.87988,19.4375L124.58813,48.254l-4.60059-4.60059,3.01074-9.9668,3.55432-1.44128a5.96606,5.96606,0,0,1-1.47925-3.71655L120.60913,30.339a2.00072,2.00072,0,0,0-1.16309,1.27539l-2.71661,8.99225L114.223,43.10922,104.1814,51.40634a2.019,2.019,0,0,0-.26807.26855l-8.15088,9.86652Zm12.9176,3.36517-4.78577,4.77838a3.83257,3.83257,0,0,1-2.68848,1.09766,3.73157,3.73157,0,0,1-2.667-1.14746,3.77355,3.77355,0,0,1,.0498-5.26367l4.78217-4.77478Zm46.972-59.23822,9.77246-8.0752,5.29883,5.29883-8.07422,9.77441-9.77246,8.0752L98.802,64.14267Z"/><circle cx="131.062" cy="28.3" r="2" fill="#0bceb2"/><circle cx="2" cy="147.238" r="2" fill="#2d4356"/><path fill="#2d4356" d="M11 145.23807H8a2 2 0 0 0 0 4h3a2 2 0 0 0 0-4zM160 145.23807h-3a2 2 0 0 0 0 4h3a2 2 0 0 0 0-4z"/><circle cx="166" cy="147.238" r="2" fill="#2d4356"/><path fill="#0bceb2" d="M83.48,116.588,54.8,145.27728l-5.56375-.02908c.07-.11,31.41378-31.49018,31.41378-31.49018a2.0011,2.0011,0,0,1,2.83,2.83Z"/><path fill="#2d4356" d="M153,147.23807a2.15641,2.15641,0,0,1-2.28,2H17.28a2.0172,2.0172,0,1,1,0-4H39.25a1.7301,1.7301,0,0,1,.27-.35l31.13-31.13a2.0011,2.0011,0,0,1,2.83,2.83l-28.65,28.65h4.42c0-.01,5.58,0,5.58,0h95.89A2.15637,2.15637,0,0,1,153,147.23807Z"/></svg>